<svg width="17" height="17" viewBox="0 0 17 17" fill="none" xmlns="http://www.w3.org/2000/svg">
<g id="Iconly/Light-Outline/Arrow---Down-Circle">
<g id="Arrow---Down-Circle">
<path id="Combined-Shape" fill-rule="evenodd" clip-rule="evenodd" d="M-3.93403e-07 8.12127C-6.10325e-07 3.6432 3.8131 -1.15945e-05 8.5 -1.17794e-05C13.1869 -1.19642e-05 17 3.6432 17 8.12127C17 12.5993 13.1869 16.2426 8.5 16.2426C3.8131 16.2426 -1.7648e-07 12.5993 -3.93403e-07 8.12127ZM1.275 8.12127C1.275 11.9277 4.51605 15.0244 8.5 15.0244C12.484 15.0244 15.725 11.9277 15.725 8.12127C15.725 4.31483 12.4839 1.21818 8.5 1.21818C4.51605 1.21818 1.275 4.31483 1.275 8.12127ZM6.82201 4.87195C7.07021 4.63399 7.47396 4.63318 7.72386 4.87032L10.687 7.69003C10.7835 7.78099 10.8458 7.89897 10.8669 8.02528L10.8748 8.12127C10.8748 8.28288 10.8077 8.43881 10.687 8.55251L7.72386 11.3714C7.47396 11.6094 7.07022 11.6077 6.82202 11.3698C6.57381 11.131 6.57381 10.7453 6.82371 10.5081L9.33462 8.12127L6.82371 5.73361C6.57381 5.49647 6.57381 5.11071 6.82201 4.87195Z" fill="white"/>
</g>
</g>
</svg>
