<svg width="22" height="20" viewBox="0 0 22 20" fill="none" xmlns="http://www.w3.org/2000/svg">
<path fill-rule="evenodd" clip-rule="evenodd" d="M16.0232 0C19.4306 0 22 2.78019 22 6.46698V13.4947C22 15.3816 21.3328 17.0863 20.1203 18.2958C19.0326 19.3794 17.6215 19.9535 16.0395 19.9535H5.9574C4.37851 19.9535 2.96847 19.3805 1.87972 18.2958C0.667163 17.0863 0 15.3816 0 13.4947V6.46698C0 2.78019 2.5694 0 5.97684 0H16.0232ZM16.0232 1.53488H5.97684C3.40335 1.53488 1.53488 3.60902 1.53488 6.46698V13.4947C1.53488 14.9713 2.04242 16.2902 2.96335 17.2081C3.7574 18.0011 4.79395 18.4186 5.96047 18.4186H16.0232C16.0252 18.4166 16.0334 18.4186 16.0395 18.4186C17.2071 18.4186 18.2426 18.0011 19.0367 17.2081C19.9586 16.2902 20.4651 14.9713 20.4651 13.4947V6.46698C20.4651 3.60902 18.5967 1.53488 16.0232 1.53488ZM17.6358 6.27133C17.9029 6.5998 17.8527 7.08277 17.5243 7.35086L12.9769 11.0469C12.4019 11.5032 11.7142 11.7314 11.0276 11.7314C10.3431 11.7314 9.66056 11.5053 9.08958 11.053L4.50028 7.35291C4.16977 7.08686 4.1186 6.60286 4.38363 6.27338C4.6507 5.94491 5.13367 5.89273 5.46316 6.15775L10.0484 9.85375C10.6245 10.3101 11.4359 10.3101 12.0161 9.84966L16.5553 6.1598C16.8847 5.89068 17.3677 5.94184 17.6358 6.27133Z" fill="black"/>
</svg>
