<svg width="20" height="20" viewBox="0 0 20 20" fill="none" xmlns="http://www.w3.org/2000/svg">
<path fill-rule="evenodd" clip-rule="evenodd" d="M2.30157 2.98656C2.30352 2.98656 2.25474 3.03729 2.19328 3.09778C1.95719 3.32704 1.46842 3.8041 1.46349 4.80212C1.45574 6.19818 2.37376 8.79031 6.79414 13.2097C11.194 17.6076 13.7822 18.5364 15.1812 18.5364H15.2017C16.1997 18.5315 16.6758 18.0418 16.9061 17.8067C16.9763 17.7345 17.0329 17.6818 17.0729 17.6486C18.0446 16.6711 18.5421 15.9433 18.5373 15.477C18.5304 15.0009 17.9382 14.438 17.1197 13.6595C16.8592 13.4117 16.5763 13.1424 16.2778 12.8439C15.5042 12.0722 15.1208 12.2039 14.2778 12.5005C13.112 12.9092 11.5121 13.4653 9.02627 10.9785C6.53658 8.49081 7.09364 6.8928 7.50143 5.72698C7.79606 4.88407 7.93069 4.49969 7.15608 3.72508C6.85267 3.42265 6.58048 3.13582 6.32976 2.87242C5.55612 2.05878 4.99808 1.4705 4.52493 1.46367H4.51712C4.04982 1.46367 3.32398 1.96317 2.29669 2.99046C2.29962 2.98754 2.30157 2.98656 2.30157 2.98656ZM15.1822 19.9998C12.7511 19.9998 9.58138 18.0642 5.76002 14.2448C1.92402 10.4098 -0.0144702 7.23035 8.13174e-05 4.79432C0.00894381 3.1846 0.852825 2.36023 1.16989 2.05097C1.18647 2.03049 1.24306 1.97488 1.26257 1.95537C2.66156 0.555403 3.60495 -0.0104363 4.54346 0.000145496C5.63319 0.0149289 6.40878 0.830518 7.39022 1.86366C7.63314 2.11927 7.89655 2.39731 8.1902 2.68998C9.61455 4.11434 9.20871 5.27626 8.88286 6.20892C8.52775 7.22645 8.22044 8.10448 10.0604 9.94443C11.9023 11.7844 12.7803 11.4771 13.794 11.119C14.7276 10.7932 15.8866 10.3854 17.3129 11.8097C17.6017 12.0985 17.8758 12.359 18.1285 12.6C19.1665 13.5863 19.986 14.3658 19.9998 15.4584C20.0114 16.3901 19.4455 17.3394 18.0485 18.7374L17.43 18.3179L17.9529 18.8291C17.6436 19.1461 16.8202 19.991 15.2095 19.9998H15.1822Z" fill="black"/>
</svg>
